<svg width="90" height="23" viewBox="0 0 90 23" fill="none" xmlns="http://www.w3.org/2000/svg">
<path d="M3.312 6.832V13.744C3.312 14.5013 3.50933 15.0827 3.904 15.488C4.29867 15.8827 4.85333 16.08 5.568 16.08C6.29333 16.08 6.85333 15.8827 7.248 15.488C7.64267 15.0827 7.84 14.5013 7.84 13.744V6.832H10.096V13.728C10.096 14.6773 9.888 15.4827 9.472 16.144C9.06667 16.7947 8.51733 17.2853 7.824 17.616C7.14133 17.9467 6.37867 18.112 5.536 18.112C4.704 18.112 3.94667 17.9467 3.264 17.616C2.592 17.2853 2.05867 16.7947 1.664 16.144C1.26933 15.4827 1.072 14.6773 1.072 13.728V6.832H3.312ZM14.5003 10.416C14.7883 10.0107 15.1829 9.67467 15.6843 9.408C16.1963 9.13067 16.7776 8.992 17.4283 8.992C18.1856 8.992 18.8683 9.17867 19.4763 9.552C20.0949 9.92533 20.5803 10.4587 20.9323 11.152C21.2949 11.8347 21.4763 12.6293 21.4763 13.536C21.4763 14.4427 21.2949 15.248 20.9323 15.952C20.5803 16.6453 20.0949 17.184 19.4763 17.568C18.8683 17.952 18.1856 18.144 17.4283 18.144C16.7776 18.144 16.2016 18.0107 15.7003 17.744C15.2096 17.4773 14.8096 17.1413 14.5003 16.736V22.224H12.2603V9.136H14.5003V10.416ZM19.1883 13.536C19.1883 13.0027 19.0763 12.544 18.8523 12.16C18.6389 11.7653 18.3509 11.4667 17.9883 11.264C17.6363 11.0613 17.2523 10.96 16.8363 10.96C16.4309 10.96 16.0469 11.0667 15.6843 11.28C15.3323 11.4827 15.0443 11.7813 14.8203 12.176C14.6069 12.5707 14.5003 13.0347 14.5003 13.568C14.5003 14.1013 14.6069 14.5653 14.8203 14.96C15.0443 15.3547 15.3323 15.6587 15.6843 15.872C16.0469 16.0747 16.4309 16.176 16.8363 16.176C17.2523 16.176 17.6363 16.0693 17.9883 15.856C18.3509 15.6427 18.6389 15.3387 18.8523 14.944C19.0763 14.5493 19.1883 14.08 19.1883 13.536Z" fill="white"/>
<path d="M22.56 12.4C22.56 11.3013 22.8053 10.32 23.296 9.456C23.7973 8.58133 24.4747 7.904 25.328 7.424C26.192 6.93333 27.1573 6.688 28.224 6.688C29.472 6.688 30.5653 7.008 31.504 7.648C32.4427 8.288 33.0987 9.17333 33.472 10.304H30.896C30.64 9.77067 30.2773 9.37067 29.808 9.104C29.3493 8.83733 28.816 8.704 28.208 8.704C27.5573 8.704 26.976 8.85867 26.464 9.168C25.9627 9.46667 25.568 9.89333 25.28 10.448C25.0027 11.0027 24.864 11.6533 24.864 12.4C24.864 13.136 25.0027 13.7867 25.28 14.352C25.568 14.9067 25.9627 15.3387 26.464 15.648C26.976 15.9467 27.5573 16.096 28.208 16.096C28.816 16.096 29.3493 15.9627 29.808 15.696C30.2773 15.4187 30.64 15.0133 30.896 14.48H33.472C33.0987 15.6213 32.4427 16.512 31.504 17.152C30.576 17.7813 29.4827 18.096 28.224 18.096C27.1573 18.096 26.192 17.856 25.328 17.376C24.4747 16.8853 23.7973 16.208 23.296 15.344C22.8053 14.48 22.56 13.4987 22.56 12.4ZM37.6253 6.16V18H35.3853V6.16H37.6253ZM43.7744 18.144C42.921 18.144 42.153 17.9573 41.4704 17.584C40.7877 17.2 40.249 16.6613 39.8544 15.968C39.4704 15.2747 39.2784 14.4747 39.2784 13.568C39.2784 12.6613 39.4757 11.8613 39.8704 11.168C40.2757 10.4747 40.825 9.94133 41.5184 9.568C42.2117 9.184 42.985 8.992 43.8384 8.992C44.6917 8.992 45.465 9.184 46.1584 9.568C46.8517 9.94133 47.3957 10.4747 47.7904 11.168C48.1957 11.8613 48.3984 12.6613 48.3984 13.568C48.3984 14.4747 48.1904 15.2747 47.7744 15.968C47.369 16.6613 46.8144 17.2 46.1104 17.584C45.417 17.9573 44.6384 18.144 43.7744 18.144ZM43.7744 16.192C44.1797 16.192 44.5584 16.096 44.9104 15.904C45.273 15.7013 45.561 15.4027 45.7744 15.008C45.9877 14.6133 46.0944 14.1333 46.0944 13.568C46.0944 12.7253 45.8704 12.08 45.4224 11.632C44.985 11.1733 44.4464 10.944 43.8064 10.944C43.1664 10.944 42.6277 11.1733 42.1904 11.632C41.7637 12.08 41.5504 12.7253 41.5504 13.568C41.5504 14.4107 41.7584 15.0613 42.1744 15.52C42.601 15.968 43.1344 16.192 43.7744 16.192ZM49.4655 13.536C49.4655 12.64 49.6415 11.8453 49.9935 11.152C50.3562 10.4587 50.8415 9.92533 51.4495 9.552C52.0682 9.17867 52.7562 8.992 53.5135 8.992C54.1748 8.992 54.7508 9.12533 55.2415 9.392C55.7428 9.65867 56.1428 9.99467 56.4415 10.4V9.136H58.6975V18H56.4415V16.704C56.1535 17.12 55.7535 17.4667 55.2415 17.744C54.7402 18.0107 54.1588 18.144 53.4975 18.144C52.7508 18.144 52.0682 17.952 51.4495 17.568C50.8415 17.184 50.3562 16.6453 49.9935 15.952C49.6415 15.248 49.4655 14.4427 49.4655 13.536ZM56.4415 13.568C56.4415 13.024 56.3348 12.56 56.1215 12.176C55.9082 11.7813 55.6202 11.4827 55.2575 11.28C54.8948 11.0667 54.5055 10.96 54.0895 10.96C53.6735 10.96 53.2895 11.0613 52.9375 11.264C52.5855 11.4667 52.2975 11.7653 52.0735 12.16C51.8602 12.544 51.7535 13.0027 51.7535 13.536C51.7535 14.0693 51.8602 14.5387 52.0735 14.944C52.2975 15.3387 52.5855 15.6427 52.9375 15.856C53.3002 16.0693 53.6842 16.176 54.0895 16.176C54.5055 16.176 54.8948 16.0747 55.2575 15.872C55.6202 15.6587 55.9082 15.36 56.1215 14.976C56.3348 14.5813 56.4415 14.112 56.4415 13.568ZM60.3092 13.536C60.3092 12.64 60.4852 11.8453 60.8372 11.152C61.1999 10.4587 61.6906 9.92533 62.3093 9.552C62.9279 9.17867 63.6159 8.992 64.3733 8.992C64.9493 8.992 65.4986 9.12 66.0213 9.376C66.5439 9.62133 66.9599 9.952 67.2693 10.368V6.16H69.5413V18H67.2693V16.688C66.9919 17.1253 66.6026 17.4773 66.1013 17.744C65.5999 18.0107 65.0186 18.144 64.3573 18.144C63.6106 18.144 62.9279 17.952 62.3093 17.568C61.6906 17.184 61.1999 16.6453 60.8372 15.952C60.4852 15.248 60.3092 14.4427 60.3092 13.536ZM67.2853 13.568C67.2853 13.024 67.1786 12.56 66.9653 12.176C66.7519 11.7813 66.4639 11.4827 66.1013 11.28C65.7386 11.0667 65.3493 10.96 64.9333 10.96C64.5173 10.96 64.1333 11.0613 63.7812 11.264C63.4293 11.4667 63.1413 11.7653 62.9173 12.16C62.7039 12.544 62.5973 13.0027 62.5973 13.536C62.5973 14.0693 62.7039 14.5387 62.9173 14.944C63.1413 15.3387 63.4293 15.6427 63.7812 15.856C64.1439 16.0693 64.5279 16.176 64.9333 16.176C65.3493 16.176 65.7386 16.0747 66.1013 15.872C66.4639 15.6587 66.7519 15.36 66.9653 14.976C67.1786 14.5813 67.2853 14.112 67.2853 13.568Z" fill="#4A8BB5"/>
<path d="M73.3494 15.7353L72.5172 14.5925C72.1811 14.131 72 13.5748 72 13.0038V12.0221C72 11.5082 72.1467 11.0051 72.4228 10.5718L73.3494 9.11765C73.9783 8.1307 75.4193 8.13069 76.0482 9.11765C76.6771 10.1046 78.1181 10.1046 78.747 9.11765C79.3759 8.13069 80.8169 8.13069 81.4458 9.11765C82.0747 10.1046 83.5157 10.1046 84.1446 9.11765L84.1902 9.04612C84.8166 8.06308 86.2361 8.01899 86.9223 8.96126L88.0181 10.466C88.3822 10.966 88.5783 11.5685 88.5783 12.1869V12.8225C88.5783 13.5074 88.3384 14.1706 87.9003 14.697L86.911 15.8857C86.1919 16.7497 84.8517 16.7064 84.19 15.7976L84.1446 15.7353C83.4779 14.8198 82.1125 14.8198 81.4458 15.7353C80.7791 16.6508 79.4137 16.6508 78.747 15.7353C78.0803 14.8198 76.7149 14.8198 76.0482 15.7353C75.3815 16.6508 74.0161 16.6508 73.3494 15.7353Z" fill="white" stroke="white"/>
</svg>
